<svg width="107" height="12" viewBox="0 0 107 12" fill="none" xmlns="http://www.w3.org/2000/svg">
<g clip-path="url(#clip0_4_17)">
<path d="M102.09 0.51062C103.135 0.51062 104.18 0.51062 105.258 0.51062C105.262 1.08231 105.262 1.08231 105.266 1.66554C105.269 1.90756 105.271 2.14958 105.274 2.39161C105.278 2.77541 105.282 3.15922 105.285 3.54303C105.287 3.85261 105.29 4.16218 105.294 4.47175C105.296 4.58962 105.296 4.70749 105.297 4.82537C105.298 4.99099 105.3 5.15655 105.303 5.32217C105.303 5.37047 105.302 5.41877 105.302 5.46853C105.311 5.87089 105.397 6.24361 105.768 6.53456C106.145 6.68513 106.145 6.68513 107 6.76594C107 7.60849 107 8.45105 107 9.31913C105.393 9.31913 104.226 9.27298 103.056 8.38339C102.687 8.06724 102.327 7.66013 102.327 7.21275C102.275 7.21275 102.223 7.21275 102.169 7.21275C102.154 7.26407 102.139 7.31545 102.124 7.36837C101.701 8.21379 100.726 8.79432 99.7183 9.1436C98.5778 9.48432 97.3447 9.46453 96.2287 9.06381C95.1643 8.64247 94.4451 8.00245 93.9319 7.14892C93.9002 7.20605 93.8686 7.26311 93.8361 7.32196C93.3244 8.21162 92.6631 8.8286 91.4997 9.19524C91.0997 9.29883 90.7077 9.35615 90.2887 9.38296C90.2127 9.388 90.2126 9.388 90.1358 9.39317C88.9914 9.43326 87.8628 9.1593 86.9773 8.57309C86.2201 7.99051 85.7259 7.15856 85.6855 6.30988C85.6855 6.23462 85.6855 6.15936 85.6863 6.08181C85.6863 6.04005 85.6863 5.99829 85.6863 5.95527C85.6863 5.81816 85.6863 5.68106 85.6871 5.54395C85.6871 5.44852 85.6879 5.35309 85.6879 5.25767C85.6879 5.00719 85.6887 4.75672 85.6895 4.50624C85.6903 4.20534 85.6911 3.90444 85.6911 3.60354C85.6919 3.14704 85.6935 2.69054 85.6951 2.23402C86.7405 2.23402 87.7859 2.23402 88.8631 2.23402C88.8662 2.51065 88.8686 2.78728 88.8718 3.07229C88.875 3.29346 88.8781 3.51464 88.8821 3.73581C88.8852 3.96894 88.8884 4.20207 88.8908 4.43522C88.8924 4.65996 88.8955 4.88468 88.8995 5.1094C88.9019 5.23647 88.9027 5.36354 88.9035 5.49061C88.9051 5.56853 88.9066 5.64645 88.9082 5.72674C88.909 5.82922 88.909 5.82922 88.9106 5.93377C88.9565 6.21372 89.0785 6.43013 89.3288 6.62883C89.6353 6.76256 89.9505 6.73307 90.2887 6.70211C90.5279 6.65143 90.5279 6.65143 90.6847 6.51062C90.9611 6.05477 90.9595 5.62742 90.9627 5.12631C90.9651 5.00201 90.9651 5.00201 90.9674 4.8752C90.9706 4.65652 90.973 4.43786 90.9754 4.21916C90.9777 3.99536 90.9817 3.77157 90.9849 3.54777C90.992 3.10985 90.9967 2.67197 91.0015 2.23402C92.0208 2.23402 93.0401 2.23402 94.0903 2.23402C94.1164 2.80275 94.1426 3.37147 94.1695 3.95743C94.282 3.83105 94.3952 3.70466 94.5109 3.57445C95.207 2.82876 96.1931 2.33958 97.3375 2.17019C98.6824 2.06098 99.8751 2.25698 100.951 2.94064C101.417 3.26131 101.651 3.52311 102.01 3.95743C102.037 2.81998 102.063 1.68254 102.09 0.51062ZM96.9463 5.19014C96.757 5.57651 96.7332 5.88609 96.9344 6.26627C97.1055 6.49753 97.3565 6.64581 97.6543 6.76594C98.0709 6.79939 98.4186 6.80839 98.798 6.65819C99.1568 6.39694 99.373 6.19256 99.4213 5.79652C99.3825 5.41671 99.2193 5.14942 98.8772 4.88695C98.1897 4.53169 97.4484 4.70756 96.9463 5.19014Z" fill="black"/>
<path d="M6.288 0.0538735C8.0059 0.00405601 9.65208 0.536529 10.951 1.42771C12.1868 2.38811 12.9768 3.67975 13.012 5.07358C13.0253 6.62644 12.4438 7.93846 11.0979 9.0798C9.74301 10.1188 8.01192 10.5667 6.17384 10.5451C4.45643 10.5019 2.8698 9.85451 1.69066 8.8594C1.14214 8.33274 0.693876 7.72961 0.395909 7.08512C0.364873 7.01976 0.333836 6.95446 0.301859 6.88712C-0.235029 5.55602 -0.0127157 4.09467 0.763837 2.86394C1.52938 1.71878 1.52938 1.71878 2.13832 1.53193C2.13832 1.4898 2.13832 1.44768 2.13832 1.40427C3.26863 0.582102 4.78878 0.132716 6.288 0.0538735Z" fill="#FCCB01"/>
<path d="M39.6003 2.7447C39.8345 2.92274 40.0493 3.10607 40.2339 3.31916C40.2339 3.36129 40.2339 3.40342 40.2339 3.44682C40.2911 3.40074 40.3482 3.35467 40.4072 3.3072C40.4807 3.24795 40.5542 3.18871 40.6299 3.12767C40.6887 3.07633 40.7475 3.02499 40.8081 2.97209C41.6207 2.36187 42.5198 2.14582 43.6172 2.15677C44.5713 2.2062 45.4581 2.44785 46.1244 3.01597C46.959 3.84158 46.9909 4.7496 46.987 5.77113C46.9871 5.8699 46.9872 5.96867 46.9874 6.06745C46.9876 6.27269 46.9873 6.47791 46.9866 6.68318C46.9856 6.94642 46.9862 7.20972 46.9871 7.47301C46.9877 7.67618 46.9875 7.87929 46.9871 8.08246C46.987 8.17961 46.9872 8.27676 46.9875 8.37397C46.9879 8.50897 46.9873 8.64397 46.9864 8.77904C46.9863 8.85582 46.9862 8.93255 46.986 9.0117C46.9659 9.1915 46.9659 9.1915 46.8075 9.31916C46.593 9.33187 46.3883 9.33691 46.1739 9.33512C46.0863 9.33589 46.0863 9.33589 45.997 9.33659C45.5604 9.33531 45.5604 9.33531 45.3819 9.1915C45.3615 9.01042 45.3615 9.01042 45.3604 8.77597C45.3601 8.73327 45.3596 8.69063 45.3592 8.64665C45.3584 8.55378 45.3579 8.46097 45.3578 8.3681C45.3574 8.22072 45.3562 8.07333 45.3545 7.92601C45.3502 7.50691 45.3477 7.0878 45.3458 6.6687C45.3445 6.41235 45.3421 6.15605 45.3391 5.89973C45.3381 5.80239 45.3376 5.70506 45.3376 5.60773C45.3376 4.93556 45.3342 4.31163 44.731 3.79814C44.2125 3.44535 43.5878 3.37729 42.9267 3.38299C42.2077 3.43401 41.6793 3.70999 41.2099 4.14022C40.8028 4.6696 40.83 5.21239 40.8269 5.81451C40.8256 5.91395 40.8242 6.0134 40.8227 6.11285C40.8189 6.37307 40.8166 6.63333 40.8144 6.89357C40.8121 7.15967 40.8084 7.42584 40.8048 7.69201C40.798 8.21312 40.7927 8.73423 40.7883 9.25533C40.5369 9.35663 40.267 9.32829 39.9914 9.32714C39.9323 9.3274 39.8732 9.32765 39.8124 9.32791C39.3727 9.32727 39.3727 9.32727 39.2835 9.25533C39.2745 9.13406 39.271 9.01259 39.2697 8.89112C39.2687 8.81306 39.2675 8.73506 39.2665 8.65463C39.266 8.61263 39.2656 8.57057 39.2653 8.52729C39.264 8.39542 39.2622 8.26355 39.2601 8.13167C39.2546 7.75661 39.2498 7.38148 39.2457 7.00642C39.2432 6.77701 39.2399 6.54767 39.2362 6.31834C39.2344 6.18967 39.2333 6.06098 39.2322 5.93231C39.2184 4.75733 39.2184 4.75733 38.5064 3.77794C37.8886 3.43628 37.2649 3.32606 36.5164 3.40867C35.823 3.53984 35.3352 3.81448 34.9281 4.2826C34.7229 4.5954 34.6697 4.88219 34.6671 5.233C34.6663 5.29721 34.6663 5.29721 34.6654 5.36272C34.6644 5.45497 34.6637 5.54723 34.6632 5.63949C34.6626 5.78543 34.661 5.93133 34.6591 6.07727C34.6547 6.43929 34.6518 6.80133 34.649 7.16344C34.6465 7.47014 34.6434 7.77691 34.6395 8.08361C34.6379 8.22755 34.6372 8.37142 34.6366 8.51535C34.6356 8.60318 34.6345 8.69101 34.6334 8.77878C34.6328 8.85557 34.6323 8.93242 34.6316 9.0115C34.6106 9.1915 34.6106 9.1915 34.4522 9.31916C34.2363 9.33014 34.0294 9.33397 33.8137 9.33116C33.7546 9.3311 33.6956 9.33104 33.6347 9.33104C33.1961 9.3281 33.1961 9.3281 33.1058 9.25533C33.0981 9.16584 33.0958 9.0761 33.0958 8.98635C33.0955 8.9284 33.0953 8.87038 33.0951 8.81063C33.0953 8.74648 33.0954 8.68233 33.0956 8.61627C33.0954 8.54912 33.0953 8.48197 33.0951 8.41284C33.0948 8.18969 33.0951 7.96655 33.0953 7.74333C33.0953 7.58906 33.0952 7.43472 33.0951 7.28044C33.095 6.95657 33.0951 6.63263 33.0955 6.30875C33.0959 5.89254 33.0957 5.47632 33.0952 5.0601C33.0949 4.74131 33.0951 4.42253 33.0952 4.10373C33.0953 3.95022 33.0952 3.7967 33.0951 3.64318C33.0948 3.42904 33.0951 3.2149 33.0956 3.00076C33.0954 2.93663 33.0953 2.8725 33.0951 2.80643C33.0954 2.71943 33.0954 2.71943 33.0958 2.63067C33.0958 2.57998 33.0958 2.52928 33.0958 2.47705C33.1058 2.36172 33.1058 2.36172 33.185 2.29789C33.397 2.29152 33.6066 2.28903 33.8186 2.28991C33.878 2.28966 33.9374 2.28942 33.9987 2.28916C34.4422 2.28981 34.4422 2.28981 34.5314 2.36172C34.5499 2.46907 34.5641 2.5769 34.576 2.68485C34.5859 2.77286 34.5859 2.77286 34.5961 2.86263C34.6009 2.90797 34.6057 2.9533 34.6106 3.00001C34.6654 2.9641 34.6654 2.9641 34.7214 2.92746C36.1504 2.02387 38.0692 1.8546 39.6003 2.7447Z" fill="black"/>
<path d="M55.2819 2.8085C55.3745 2.86466 55.3745 2.86466 55.4688 2.92195C56.3921 3.53246 56.8639 4.37976 57.0042 5.32056C57.0991 6.4184 56.7267 7.36806 55.8611 8.21406C55.1024 8.8708 54.0659 9.21606 52.9619 9.26303C51.9773 9.28397 51.0991 9.08195 50.3069 8.60757C50.2296 8.56148 50.1524 8.51546 50.0728 8.46803C50.0146 8.43299 49.9563 8.39789 49.8963 8.36169C49.8965 8.40555 49.8966 8.4494 49.8969 8.49452C49.8986 8.94906 49.8998 9.40359 49.9007 9.85812C49.9011 10.0279 49.9016 10.1978 49.9022 10.3676C49.9033 10.6111 49.9037 10.8546 49.9041 11.0981C49.9045 11.1746 49.9049 11.2511 49.9053 11.3298C49.9053 11.4353 49.9053 11.4353 49.9053 11.5428C49.9055 11.605 49.9057 11.6672 49.9058 11.7314C49.8963 11.8723 49.8963 11.8723 49.8171 11.9362C49.5919 11.9425 49.3691 11.945 49.1439 11.9441C49.0807 11.9444 49.0175 11.9447 48.9524 11.9449C48.4808 11.9443 48.4808 11.9443 48.3915 11.8723C48.3837 11.7497 48.3815 11.6268 48.3814 11.504C48.3812 11.424 48.381 11.344 48.3808 11.2615C48.3809 11.1721 48.381 11.0826 48.3813 10.9931C48.3811 10.8994 48.381 10.8059 48.3808 10.7122C48.3805 10.4573 48.3806 10.2024 48.3809 9.94748C48.381 9.68131 48.3809 9.41514 48.3807 9.14891C48.3806 8.70184 48.3808 8.25472 48.3812 7.80765C48.3816 7.28999 48.3814 6.77233 48.381 6.25469C48.3806 5.81105 48.3806 5.36741 48.3808 4.92378C48.381 4.65846 48.381 4.39314 48.3807 4.12782C48.3805 3.87844 48.3806 3.62907 48.3811 3.37969C48.3812 3.2879 48.3812 3.19612 48.381 3.10433C48.3808 2.97955 48.3811 2.85478 48.3814 2.73C48.3814 2.66001 48.3815 2.59001 48.3815 2.5179C48.3915 2.36169 48.3915 2.36169 48.4707 2.29786C48.6959 2.29149 48.9187 2.289 49.1439 2.28989C49.2071 2.28964 49.2703 2.28939 49.3354 2.28914C49.807 2.28978 49.807 2.28978 49.8963 2.36169C49.902 2.47996 49.903 2.59839 49.9013 2.71675C49.9006 2.78134 49.8998 2.84593 49.8991 2.91247C49.8982 2.96242 49.8973 3.01236 49.8963 3.06382C49.9783 3.01298 49.9783 3.01297 50.0618 2.96109C51.6036 2.02708 53.6695 1.82932 55.2819 2.8085ZM50.3892 4.15541C49.8303 4.77876 49.7311 5.43518 49.8171 6.19148C49.9772 6.84299 50.3572 7.35452 51.0249 7.74733C51.7026 8.08174 52.4592 8.19516 53.2333 8.0645C54.0038 7.89733 54.5587 7.6445 54.9948 7.09703C55.4495 6.42133 55.5975 5.71184 55.3463 4.95877C55.1068 4.40389 54.6839 3.89804 54.0398 3.60563C53.6699 3.46444 53.3182 3.34129 52.9059 3.31914C52.8128 3.31256 52.7197 3.30597 52.6238 3.29919C51.7421 3.31281 50.9537 3.61739 50.3892 4.15541Z" fill="black"/>
<path d="M11.8651 5.05454C12.4123 5.40712 12.5598 5.81456 12.6513 6.36106C12.6991 6.8538 12.6842 7.14953 12.3948 7.58383C12.352 7.65015 12.352 7.65015 12.3082 7.7178C11.4931 8.94832 10.2337 9.86083 8.56969 10.2953C6.78042 10.7167 4.9775 10.6142 3.32637 9.89363C2.40504 9.45512 1.81438 9.0108 1.34636 8.23406C1.31511 8.18261 1.28387 8.13123 1.25169 8.07825C0.800093 7.26002 0.758565 6.36367 1.13876 5.52653C1.155 5.49321 1.17123 5.45988 1.18795 5.42555C1.34313 5.65135 1.42696 5.88523 1.51961 6.13167C1.94136 7.187 2.83923 8.00663 4.04443 8.53125C4.97976 8.90134 5.85204 9.03697 6.8904 9.00002C6.86753 8.95821 6.84466 8.9164 6.8211 8.87338C6.4376 8.11355 6.50114 7.45617 6.8904 6.70215C7.45707 5.79845 8.39964 5.11689 9.59312 4.79124C10.3755 4.62908 11.1773 4.69935 11.8651 5.05454Z" fill="#FC0223"/>
<path d="M9.2465 3.69392C9.59126 3.90243 9.59126 3.90243 9.74182 4.0213C9.74182 4.06342 9.74182 4.10555 9.74182 4.14896C9.78752 4.16344 9.8333 4.17792 9.88042 4.19284C10.1059 4.29886 10.2266 4.42439 10.3754 4.59577C10.3754 4.63789 10.3754 4.68002 10.3754 4.72342C10.3007 4.73667 10.226 4.74992 10.149 4.76357C8.89533 4.99995 7.9602 5.46821 7.22225 6.33513C6.77483 6.9364 6.53554 7.59608 6.653 8.29789C6.73925 8.56004 6.84563 8.81185 6.9698 9.06385C5.50118 9.13042 4.14309 8.82277 3.01311 8.04385C2.12897 7.39949 1.35097 6.47479 1.24756 5.49287C1.27061 5.26591 1.34913 5.13513 1.49011 4.93885C1.55213 4.85073 1.55213 4.85073 1.61541 4.76082C1.7293 4.61297 1.83965 4.47262 1.98016 4.34045C2.03244 4.34045 2.08471 4.34045 2.13857 4.34045C2.19084 4.25619 2.24311 4.17194 2.29697 4.08513C2.34924 4.08513 2.40151 4.08513 2.45537 4.08513C2.4815 4.02194 2.50764 3.95874 2.53457 3.89364C2.80972 3.72567 3.10858 3.58795 3.40577 3.44683C3.45846 3.42148 3.51114 3.39614 3.56541 3.37004C5.34445 2.58457 7.60369 2.7918 9.2465 3.69392Z" fill="#FC8001"/>
<path d="M64.3901 2.87234C64.4015 2.7894 64.413 2.70646 64.4248 2.62101C64.4594 2.36968 64.4594 2.36968 64.5485 2.29787C64.7737 2.2915 64.9966 2.28901 65.2217 2.28989C65.3165 2.28952 65.3165 2.28952 65.4133 2.28915C65.8849 2.28979 65.8849 2.28979 65.9741 2.3617C65.9817 2.45133 65.9838 2.54126 65.9837 2.63108C65.9838 2.71822 65.9838 2.71822 65.984 2.80712C65.9836 2.90347 65.9836 2.90347 65.9832 3.00176C65.9832 3.06901 65.9832 3.13625 65.9832 3.20554C65.9831 3.42899 65.9825 3.65246 65.9819 3.87591C65.9818 4.03038 65.9816 4.18484 65.9815 4.33931C65.9813 4.74677 65.9805 5.15424 65.9796 5.5617C65.9787 5.97712 65.9784 6.39255 65.978 6.80796C65.9772 7.62377 65.9758 8.43951 65.9741 9.25532C65.4776 9.25532 64.981 9.25532 64.4693 9.25532C64.4686 9.12913 64.4678 9.00287 64.4671 8.87285C64.4643 8.45375 64.46 8.0347 64.4548 7.6156C64.4517 7.36175 64.4491 7.10789 64.4479 6.85404C64.4467 6.60862 64.4439 6.36319 64.4402 6.11776C64.439 6.02458 64.4384 5.9314 64.4383 5.83822C64.4373 5.18267 64.3851 4.60686 63.8258 4.09708C63.1 3.56595 62.218 3.41484 61.2651 3.42637C60.4252 3.48757 59.7495 3.80865 59.2111 4.32222C58.7864 4.80834 58.6117 5.41219 58.6877 6C58.873 6.69728 59.1968 7.22426 59.928 7.63941C60.4595 7.88036 61.0195 7.97362 61.6181 8.04255C61.6181 8.44277 61.6181 8.84298 61.6181 9.25532C61.2019 9.423 60.5176 9.23311 60.0941 9.12741C58.9037 8.74985 58.0688 8.13313 57.5375 7.19279C57.0519 6.21562 57.0556 5.21316 57.5346 4.23495C58.0104 3.41574 58.7158 2.74043 59.7718 2.39337C61.4082 1.91744 62.9406 2.09352 64.3901 2.87234Z" fill="black"/>
<path d="M73.6567 2.87232C73.6959 2.93552 73.6959 2.93552 73.7359 2.99998C73.6506 3.14568 73.562 3.28311 73.4636 3.42286C73.4368 3.46186 73.41 3.50086 73.3824 3.54104C73.316 3.63754 73.2488 3.73369 73.1815 3.82977C72.8653 3.78785 72.5914 3.70828 72.2954 3.61036C71.3321 3.30889 70.3117 3.17118 69.3084 3.44729C69.0116 3.56042 68.8128 3.72247 68.667 3.95743C68.6387 4.23587 68.6228 4.39829 68.7809 4.64759C69.3619 5.04736 70.2488 5.05362 70.9752 5.13018C72.0125 5.24792 72.8089 5.45392 73.5626 6.04786C73.8854 6.43435 74.0354 6.87464 73.9735 7.34041C73.8303 7.92413 73.5314 8.3509 72.9241 8.69679C71.6264 9.33822 70.1281 9.36235 68.667 9.12764C67.9931 8.98837 67.0879 8.78258 66.687 8.29786C66.8961 8.02403 67.1052 7.7502 67.3206 7.46807C67.5922 7.55564 67.8171 7.63881 68.0681 7.75135C69.0428 8.14409 70.3013 8.25515 71.3598 8.02735C71.7019 7.92235 72.0502 7.79162 72.2474 7.53541C72.3598 7.30077 72.3582 7.0593 72.2476 6.82441C72.0549 6.57828 71.692 6.48362 71.3534 6.41188C71.1843 6.38596 71.0156 6.36554 70.845 6.34706C70.7196 6.33168 70.5942 6.31622 70.4688 6.30069C70.4062 6.29317 70.3435 6.28567 70.2789 6.27793C68.0709 6.00968 68.0709 6.00968 67.3206 5.29786C66.9447 4.81274 66.9283 4.29297 67.0329 3.73976C67.19 3.24796 67.6322 2.86964 68.1324 2.57636C69.7006 1.86547 72.2147 2.04305 73.6567 2.87232Z" fill="black"/>
<path d="M80.8194 2.79651C80.8859 2.84259 80.9532 2.88866 81.0221 2.93614C80.8827 3.25351 80.6745 3.53834 80.4677 3.82976C80.1517 3.78784 79.8777 3.70826 79.5815 3.61034C78.6184 3.30887 77.598 3.17116 76.5947 3.44728C76.2979 3.5604 76.0991 3.72246 75.9533 3.95742C75.9036 4.32862 75.9036 4.32862 76.1117 4.64758C76.7456 5.02012 77.5017 5.05081 78.2576 5.13016C79.2686 5.24449 80.1422 5.4358 80.8487 6.05582C81.2201 6.48367 81.3318 6.8842 81.2597 7.40422C81.114 7.99305 80.6982 8.44765 80.0915 8.7885C78.8673 9.36405 77.3021 9.35614 75.9533 9.12763C75.2611 8.96933 74.6498 8.74829 74.0525 8.4255C74.0983 8.16622 74.2023 7.98839 74.3742 7.76722C74.4393 7.68271 74.4393 7.68271 74.5058 7.59648C74.5558 7.53291 74.5558 7.53291 74.6069 7.46805C74.9096 7.56169 75.1971 7.67199 75.488 7.7872C76.5399 8.17688 77.7234 8.23312 78.841 7.97818C79.1726 7.87376 79.4334 7.73129 79.5965 7.46805C79.6472 7.17074 79.6543 6.96086 79.4381 6.71008C78.897 6.40114 78.3384 6.34817 77.6957 6.29518C76.4954 6.18061 75.374 6.02931 74.5722 5.23401C74.2455 4.72839 74.1808 4.19913 74.3891 3.65422C74.6623 3.07425 75.1246 2.71354 75.8048 2.44146C77.2574 1.94202 79.5039 2.04554 80.8194 2.79651Z" fill="black"/>
<path d="M22.097 2.80853C22.2719 2.93008 22.4194 3.05129 22.5722 3.19151C22.4506 3.42645 22.2727 3.57371 22.0475 3.75002C21.9828 3.80103 21.918 3.85205 21.8513 3.90461C21.8017 3.94312 21.7521 3.98162 21.701 4.0213C21.4864 3.93863 21.2933 3.84604 21.0971 3.73805C20.4382 3.4057 19.7292 3.29916 18.9658 3.41292C18.1426 3.58518 17.5246 3.98161 17.0282 4.53194C16.6417 5.09365 16.4956 5.6869 16.6919 6.32041C16.9703 6.96353 17.4223 7.46989 18.1694 7.81042C18.9093 8.08419 19.6127 8.12204 20.3895 7.91887C20.6824 7.82089 20.943 7.69113 21.2078 7.5514C21.3825 7.46887 21.5011 7.42476 21.701 7.40428C21.8824 7.52676 22.0363 7.64447 22.196 7.7833C22.2399 7.82006 22.2838 7.85689 22.3291 7.89487C22.4374 7.98596 22.5446 8.078 22.6514 8.17023C22.4888 8.56336 21.9011 8.78874 21.4624 8.97206C20.255 9.39947 19.0828 9.42308 17.8496 9.03793C16.5736 8.55927 15.692 7.76262 15.2066 6.70215C14.8462 5.74919 15.036 4.76414 15.6094 3.89463C16.2919 3.028 17.2909 2.4184 18.533 2.17023C19.8037 1.97592 21.0486 2.19657 22.097 2.80853Z" fill="black"/>
<path d="M30.4704 2.8771C31.4806 3.58083 32.0603 4.40695 32.1756 5.48614C32.221 6.44517 31.8835 7.32271 31.1061 8.05056C30.2314 8.79839 29.1917 9.22209 27.8985 9.26205C27.7203 9.25534 27.7203 9.25534 27.6411 9.19151C27.6353 9.01937 27.6338 8.84894 27.6361 8.67692C27.6365 8.62847 27.6369 8.58003 27.6372 8.53017C27.6382 8.41017 27.6396 8.29024 27.6411 8.17024C27.8859 8.08643 28.1118 8.0263 28.3737 7.99075C29.229 7.84368 29.7469 7.42343 30.2284 6.86026C30.6027 6.29939 30.5942 5.57748 30.4407 4.96379C30.2294 4.44636 29.8683 3.99181 29.2795 3.71013C28.3423 3.34015 27.5344 3.28414 26.5415 3.5543C25.8535 3.78848 25.3965 4.17022 25.1067 4.72343C24.9746 5.0597 24.8841 5.39994 24.7899 5.74471C24.2933 5.74471 23.7967 5.74471 23.2851 5.74471C23.2368 4.85018 23.5734 4.023 24.2949 3.33114C25.8862 1.9879 28.6076 1.73342 30.4704 2.8771Z" fill="black"/>
<path d="M6.28814 0.0538735C8.00604 0.00405602 9.65223 0.536529 10.9511 1.42771C12.1881 2.38897 12.9783 3.68194 13.012 5.07707C13.0185 5.76459 12.9329 6.3666 12.6721 7.02129C12.591 6.80236 12.5799 6.59472 12.5682 6.36704C12.5286 5.92275 12.4136 5.6001 12.0187 5.28193C11.8252 5.03681 11.872 4.84098 11.8832 4.55612C11.8681 3.50054 11.2472 2.43399 10.3555 1.67555C9.27666 0.850274 7.91522 0.456124 6.445 0.422889C4.93258 0.46187 3.57202 0.977659 2.52952 1.85507C1.5047 2.82773 1.15665 3.93893 1.19796 5.20214C1.2035 5.4795 1.14642 5.71886 1.06431 5.98805C0.814051 6.86682 1.02583 7.70274 1.60881 8.46544C1.65098 8.51631 1.69315 8.56712 1.73659 8.61953C1.76466 8.66082 1.79274 8.70212 1.82166 8.7447C1.79553 8.78682 1.76939 8.82895 1.74246 8.87236C0.328456 7.58427 -0.0352811 6.15339 0.0792514 4.4681C0.219682 3.44477 0.962568 2.40613 1.82166 1.65959C2.00358 1.57332 2.00358 1.57332 2.13847 1.53193C2.13847 1.4898 2.13847 1.44768 2.13847 1.40427C3.26878 0.582102 4.78892 0.132716 6.28814 0.0538735Z" fill="#F77D01"/>
<path d="M28.9082 4.72347C29.0799 4.89353 29.1498 4.98944 29.1329 5.21058C29.1132 5.26919 29.0936 5.32781 29.0734 5.3882C29.0522 5.45254 29.0311 5.51688 29.0093 5.58318C28.9858 5.64966 28.9622 5.71614 28.9379 5.78464C28.9161 5.85161 28.8944 5.91859 28.872 5.9876C28.6737 6.57293 28.6737 6.57293 28.433 6.70219C28.158 6.73308 28.0147 6.73219 27.7802 6.60868C27.7263 6.56566 27.6724 6.52264 27.6168 6.47827C27.5576 6.43104 27.4984 6.38381 27.4374 6.33517C27.3771 6.28514 27.3169 6.23511 27.2549 6.18357C27.1928 6.13503 27.1307 6.08648 27.0667 6.03646C27.0081 5.98874 26.9495 5.94102 26.8892 5.89185C26.8358 5.8484 26.7824 5.80494 26.7274 5.76017C26.5741 5.57118 26.573 5.45571 26.6113 5.2341C26.8307 4.98175 27.1861 4.94675 27.537 4.87107C27.5986 4.85672 27.6602 4.84235 27.7237 4.82757C28.1287 4.73801 28.4889 4.68063 28.9082 4.72347Z" fill="#F9C501"/>
<path d="M83.7941 7.59569C84.0475 7.71301 84.2249 7.85873 84.3833 8.05845C84.4586 8.35686 84.4538 8.65405 84.2685 8.92615C84.0665 9.13526 83.878 9.26611 83.5565 9.31909C83.2025 9.32273 82.926 9.29292 82.6156 9.15154C82.3732 8.93286 82.2204 8.72152 82.2021 8.42196C82.2315 8.11698 82.3289 7.92913 82.6061 7.72335C83.014 7.53364 83.3482 7.4762 83.7941 7.59569Z" fill="black"/>
</g>
<defs>
<clipPath id="clip0_4_17">
<rect width="107" height="12" fill="white"/>
</clipPath>
</defs>
</svg>
