<svg width="213" height="107" viewBox="0 0 213 107" fill="none" xmlns="http://www.w3.org/2000/svg">
<path d="M53.0677 0C18.3084 0 0 26.7992 0 53.0677C0 79.3363 18.3084 106.135 53.0677 106.135C74.0295 106.135 90.7458 91.2765 106.135 73.7641C121.525 91.2765 137.711 106.135 159.203 106.135C193.963 106.135 212.271 79.3363 212.271 53.0677C212.271 26.7992 193.963 0 159.203 0C137.711 0 121.525 14.859 106.135 32.3713C90.7458 14.859 74.0295 0 53.0677 0ZM53.0677 26.5339C64.212 26.5339 76.4175 39.0048 88.6231 53.0677C76.4175 67.1307 64.212 79.6016 53.0677 79.6016C33.4327 79.6016 26.5339 65.2733 26.5339 53.0677C26.5339 40.8622 33.4327 26.5339 53.0677 26.5339ZM159.203 26.5339C178.838 26.5339 185.737 40.8622 185.737 53.0677C185.737 65.2733 178.838 79.6016 159.203 79.6016C147.794 79.6016 135.588 67.1307 123.648 53.0677C135.853 39.0048 147.794 26.5339 159.203 26.5339Z" fill="black"/>
</svg>
