<svg width="675" height="676" viewBox="0 0 675 676" fill="none" xmlns="http://www.w3.org/2000/svg">
<path d="M325.989 0.207008C415.155 -3.00135 500.598 31.2911 568.012 88.6853C632.158 150.537 673.16 233.722 674.988 323.488C675.679 423.496 645.496 507.994 575.639 581.498C505.315 648.415 415.468 677.257 320.064 675.869C230.924 673.082 148.572 631.39 87.3707 567.303C58.9009 533.385 35.6344 494.543 20.1689 453.036C18.558 448.828 16.9471 444.621 15.2874 440.286C-12.579 354.558 -1.04014 260.444 39.2656 181.182C79.0001 107.431 79.0001 107.431 110.606 95.3974C110.606 92.6843 110.606 89.9712 110.606 87.1758C169.273 34.2262 248.174 5.28466 325.989 0.207008Z" fill="#FCCB01"/>
<path d="M615.462 322.262C643.863 344.969 651.517 371.209 656.265 406.404C658.749 438.137 657.973 457.183 642.953 485.152C640.728 489.424 640.728 489.424 638.457 493.783C596.152 573.032 530.782 631.797 444.415 659.78C351.545 686.916 257.967 680.316 172.268 633.911C124.448 605.67 93.7902 577.055 69.4984 527.03C67.8769 523.718 66.2554 520.406 64.5847 516.994C41.1455 464.299 38.99 406.572 58.7236 352.659C59.5662 350.513 60.4087 348.367 61.2768 346.156C69.3313 360.697 73.6818 375.76 78.4907 391.631C100.381 459.598 146.984 512.384 209.538 546.171C258.085 570.006 303.359 578.741 357.253 576.36C356.067 573.668 354.88 570.976 353.657 568.202C333.752 519.27 337.05 476.932 357.253 428.371C386.666 370.171 435.589 326.277 497.534 305.305C538.14 294.861 579.759 299.386 615.462 322.262Z" fill="#FC0223"/>
<path d="M479.533 234.634C497.428 248.062 497.428 248.062 505.242 255.718C505.242 258.431 505.242 261.144 505.242 263.94C507.616 264.872 509.99 265.805 512.436 266.766C524.141 273.594 530.403 281.679 538.128 292.715C538.128 295.428 538.128 298.141 538.128 300.937C534.249 301.79 530.37 302.643 526.374 303.522C461.305 318.745 412.77 348.903 374.467 404.734C351.245 443.456 338.825 485.944 344.921 531.141C349.398 548.024 354.919 564.242 361.364 580.47C285.138 584.758 214.648 564.944 155.999 514.778C110.108 473.282 69.7274 413.727 64.3599 350.491C65.5562 335.874 69.6316 327.452 76.9492 314.811C80.1683 309.135 80.1683 309.135 83.4526 303.345C89.3641 293.824 95.0912 284.784 102.385 276.272C105.098 276.272 107.811 276.272 110.606 276.272C113.319 270.846 116.032 265.419 118.828 259.829C121.541 259.829 124.254 259.829 127.049 259.829C128.406 255.759 129.762 251.689 131.16 247.496C145.441 236.679 160.953 227.809 176.379 218.721C179.113 217.089 181.847 215.457 184.665 213.775C277.003 163.19 394.265 176.536 479.533 234.634Z" fill="#FC8001"/>
<path d="M325.989 0.207008C415.155 -3.00135 500.598 31.2912 568.012 88.6853C632.216 150.593 673.228 233.863 674.98 323.713C675.316 367.99 670.872 406.761 657.341 448.925C653.131 434.825 652.554 421.451 651.946 406.79C649.893 378.176 643.917 357.397 623.427 336.906C613.381 321.12 615.808 308.508 616.394 290.162C615.608 222.181 583.384 153.492 537.1 104.647C481.104 51.4973 410.44 26.1129 334.13 23.9725C255.63 26.4829 185.013 59.7009 130.903 116.208C77.7112 178.85 59.6466 250.414 61.7906 331.768C62.0783 349.63 59.1154 365.045 54.8537 382.382C41.8644 438.978 52.8562 492.813 83.1154 541.932C85.3039 545.207 87.4924 548.481 89.7472 551.855C91.2044 554.516 92.6617 557.176 94.1631 559.916C92.8065 562.63 91.45 565.343 90.0523 568.138C16.6604 485.182 -2.21886 393.03 3.72578 284.494C11.0146 218.589 49.5729 151.698 94.1631 103.619C103.605 98.063 103.605 98.063 110.606 95.3974C110.606 92.6843 110.606 89.9712 110.606 87.1759C169.273 34.2262 248.174 5.28466 325.989 0.207008Z" fill="#F77D01"/>
</svg>
