<svg width="39" height="39" viewBox="0 0 39 39" fill="none" xmlns="http://www.w3.org/2000/svg">
<path d="M29.9325 14.9663C28.9385 12.6845 27.2236 10.7917 25.0506 9.57809C22.8776 8.36447 20.3666 7.89705 17.9025 8.24749C15.4383 8.59792 13.1572 9.74687 11.4087 11.5182C9.66023 13.2895 8.54097 15.5854 8.22254 18.0538C6.67324 18.4249 5.31415 19.3519 4.40336 20.659C3.49257 21.9661 3.09352 23.5621 3.28199 25.1441C3.47046 26.726 4.23331 28.1836 5.42569 29.2401C6.61807 30.2966 8.15693 30.8784 9.75004 30.8751H27.625C29.574 30.8697 31.4561 30.164 32.928 28.8866C34.4 27.6091 35.3637 25.8452 35.6435 23.9164C35.9233 21.9876 35.5004 20.0226 34.452 18.3796C33.4037 16.7366 31.7996 15.5252 29.9325 14.9663ZM27.625 27.6251H9.75004C8.88808 27.6251 8.06143 27.2827 7.45194 26.6732C6.84244 26.0637 6.50004 25.237 6.50004 24.3751C6.50004 23.5131 6.84244 22.6865 7.45194 22.077C8.06143 21.4675 8.88808 21.1251 9.75004 21.1251C10.181 21.1251 10.5943 20.9539 10.8991 20.6491C11.2038 20.3444 11.375 19.9311 11.375 19.5001C11.3792 17.5782 12.0645 15.7199 13.3092 14.2555C14.5539 12.7911 16.2775 11.8154 18.1736 11.5016C20.0698 11.1879 22.0157 11.5564 23.6658 12.5418C25.3159 13.5273 26.5633 15.0657 27.1863 16.8838C27.2816 17.16 27.4497 17.4054 27.6727 17.5942C27.8958 17.7829 28.1656 17.908 28.4538 17.9563C29.6449 18.1761 30.7115 18.8314 31.4459 19.7946C32.1803 20.7578 32.5298 21.9599 32.4264 23.1667C32.3229 24.3735 31.774 25.4986 30.8864 26.3228C29.9988 27.147 28.8362 27.6112 27.625 27.6251Z" fill="black"/>
</svg>
