<svg width="24" height="23" viewBox="0 0 24 23" fill="none" xmlns="http://www.w3.org/2000/svg">
<path d="M11.6083 0.00704404C14.6424 -0.10213 17.5499 1.06477 19.8438 3.01777C22.0266 5.12245 23.4218 7.95305 23.484 11.0076C23.5075 14.4106 22.4804 17.2859 20.1034 19.7871C17.7104 22.0642 14.6531 23.0456 11.4067 22.9984C8.37345 22.9035 5.57119 21.4848 3.48864 19.3041C2.51987 18.15 1.72816 16.8282 1.20191 15.4158C1.14709 15.2727 1.09228 15.1295 1.0358 14.982C0.0875656 12.0648 0.480208 8.86233 1.85173 6.16523C3.20381 3.65564 3.20381 3.65564 4.27929 3.24617C4.27929 3.15385 4.27929 3.06153 4.27929 2.96641C6.27561 1.16464 8.96043 0.179826 11.6083 0.00704404Z" fill="#FCCB01"/>
<path d="M21.4585 10.9659C22.4249 11.7385 22.6853 12.6314 22.8469 13.8291C22.9314 14.9088 22.905 15.5569 22.3939 16.5087C22.3182 16.654 22.3182 16.654 22.2409 16.8024C20.8014 19.499 18.577 21.4987 15.6381 22.4509C12.4779 23.3743 9.29367 23.1497 6.37752 21.5706C4.75029 20.6096 3.70709 19.6359 2.88049 17.9337C2.82531 17.821 2.77013 17.7083 2.71329 17.5922C1.9157 15.7991 1.84235 13.8348 2.51385 12.0002C2.54252 11.9272 2.57119 11.8542 2.60073 11.7789C2.8748 12.2737 3.02284 12.7863 3.18648 13.3264C3.93136 15.6391 5.51715 17.4353 7.64574 18.585C9.29767 19.3961 10.8383 19.6933 12.6722 19.6123C12.6318 19.5207 12.5914 19.4291 12.5498 19.3347C11.8725 17.6696 11.9847 16.229 12.6722 14.5765C13.673 12.5961 15.3377 11.1025 17.4456 10.3889C18.8274 10.0335 20.2435 10.1875 21.4585 10.9659Z" fill="#FC0223"/>
<path d="M16.8331 7.98409C17.442 8.44103 17.442 8.44103 17.7079 8.70153C17.7079 8.79385 17.7079 8.88617 17.7079 8.98129C17.7887 9.01303 17.8694 9.04477 17.9527 9.07746C18.351 9.3098 18.5641 9.58492 18.8269 9.96046C18.8269 10.0528 18.8269 10.1451 18.8269 10.2402C18.6949 10.2693 18.563 10.2983 18.427 10.3282C16.2128 10.8462 14.5613 11.8724 13.2579 13.7722C12.4677 15.0899 12.0451 16.5356 12.2525 18.0736C12.4048 18.6481 12.5927 19.2 12.812 19.7521C10.2182 19.898 7.81962 19.2238 5.82389 17.5168C4.26234 16.1048 2.88827 14.0782 2.70563 11.9264C2.74633 11.4291 2.88501 11.1425 3.13401 10.7123C3.24356 10.5192 3.24356 10.5192 3.35531 10.3222C3.55647 9.99818 3.75135 9.6906 3.99953 9.40094C4.09185 9.40094 4.18417 9.40094 4.27929 9.40094C4.37161 9.21629 4.46393 9.03165 4.55905 8.84141C4.65138 8.84141 4.7437 8.84141 4.83882 8.84141C4.88498 8.70293 4.93114 8.56445 4.9787 8.42177C5.46465 8.05367 5.9925 7.75186 6.51739 7.4426C6.61043 7.38706 6.70348 7.33153 6.79934 7.27431C9.94142 5.55299 13.9316 6.00712 16.8331 7.98409Z" fill="#FC8001"/>
<path d="M11.6083 0.00704404C14.6424 -0.10213 17.5499 1.06477 19.8438 3.01777C22.0285 5.12435 23.4241 7.95786 23.4837 11.0152C23.4952 12.5219 23.3439 13.8412 22.8835 15.276C22.7403 14.7961 22.7206 14.3411 22.6999 13.8422C22.63 12.8685 22.4267 12.1614 21.7295 11.4642C21.3876 10.927 21.4702 10.4979 21.4902 9.87359C21.4634 7.56033 20.3669 5.223 18.792 3.5609C16.8865 1.75234 14.482 0.888565 11.8853 0.815732C9.21416 0.901158 6.81119 2.03149 4.96996 3.95432C3.15995 6.08587 2.54525 8.52104 2.61821 11.2893C2.628 11.8972 2.52718 12.4217 2.38216 13.0116C1.94016 14.9375 2.31419 16.7694 3.34384 18.4408C3.41831 18.5522 3.49278 18.6636 3.56951 18.7784C3.6191 18.869 3.66869 18.9595 3.71977 19.0527C3.67361 19.1451 3.62745 19.2374 3.57989 19.3325C1.08252 16.5097 0.440105 13.374 0.642388 9.6807C0.890411 7.43811 2.20247 5.16194 3.71977 3.52593C4.04106 3.33687 4.04106 3.33687 4.2793 3.24617C4.2793 3.15385 4.2793 3.06153 4.2793 2.96641C6.27562 1.16464 8.96043 0.179826 11.6083 0.00704404Z" fill="#F77D01"/>
</svg>
